Coordinates
version=1
nRows=19
nColumns=24
inDegrees=yes

Units are S.I. units (second, meters, Newtons, ...)
Angles are in degrees.

endheader
time	pelvis_tilt	pelvis_list	pelvis_rotation	pelvis_tx	pelvis_ty	pelvis_tz	hip_flexion_r	hip_adduction_r	hip_rotation_r	knee_angle_r	ankle_angle_r	subtalar_angle_r	mtp_angle_r	hip_flexion_l	hip_adduction_l	hip_rotation_l	knee_angle_l	ankle_angle_l	subtalar_angle_l	mtp_angle_l	lumbar_extension	lumbar_bending	lumbar_rotation
      6.50000000	      6.82271096	      1.81422188	     -1.62113193	      0.17485369	      0.91092166	      0.19303364	     12.51722275	     -0.49922845	     -1.43770203	    -65.98466899	      6.00528982	     -6.02328368	      0.00000000	     -1.37762518	      7.70145530	      1.05063951	     -9.62928371	     12.32727514	     -2.71421951	      0.00000000	    -23.32143886	     -1.10318230	     -6.23583084
      6.51000000	      6.63546905	      1.67456003	     -1.02982385	      0.18574659	      0.91146182	      0.19190843	     13.93936424	     -0.45619297	     -2.09853940	    -64.89340817	      6.88483067	     -6.11926344	      0.00000000	     -2.34846634	      7.61354069	      2.19849400	     -8.90831871	     12.26780803	     -3.54139308	      0.00000000	    -23.36557593	     -0.76769699	     -6.56802186
      6.52000000	      6.44921093	      1.53614785	     -0.44413038	      0.19656069	      0.91183405	      0.19094028	     15.24715080	     -0.39751385	     -2.69822737	    -63.46373625	      7.48772913	     -6.47354634	      0.00000000	     -3.17871174	      7.45493241	      2.71045737	     -8.42480466	     12.64314174	     -3.35728963	      0.00000000	    -23.44949632	     -0.45893047	     -6.81041094
      6.53000000	      6.25856285	      1.45377204	      0.13385493	      0.20736424	      0.91199358	      0.19007590	     16.44300607	     -0.39697066	     -3.23735033	    -61.72180470	      8.05755265	     -6.82227463	      0.00000000	     -3.99590053	      7.33734490	      3.26710981	     -7.95108192	     12.99663963	     -3.27321898	      0.00000000	    -23.53958555	     -0.24296786	     -7.04764102
      6.54000000	      6.16806298	      1.39873335	      0.68616592	      0.21815115	      0.91208923	      0.18931986	     17.39480442	     -0.39870405	     -3.66926383	    -59.63745789	      8.47373464	     -7.40665488	      0.00000000	     -5.04966475	      7.25448072	      4.44364615	     -7.24517597	     12.85516064	     -4.19924892	      0.00000000	    -23.77777732	     -0.07639017	     -7.24589740
      6.55000000	      5.94845816	      1.40714320	      1.28482057	      0.22890670	      0.91185000	      0.18862861	     18.36106802	     -0.48762307	     -4.10160903	    -57.25501229	      8.79250688	     -8.00465047	      0.00000000	     -5.79566709	      7.18444242	      5.05940275	     -6.84120119	     13.14750089	     -4.12795284	      0.00000000	    -23.87580248	      0.00938259	     -7.45787158
      6.56000000	      5.80436363	      1.44052229	      1.88486340	      0.23967635	      0.91155732	      0.18803234	     19.07750051	     -0.57715827	     -4.43755094	    -54.50470358	      8.91987386	     -8.89273310	      0.00000000	     -6.60769343	      7.11850209	      5.68453718	     -6.47223983	     13.44636829	     -4.11796762	      0.00000000	    -24.07098516	      0.05999768	     -7.68050812
      6.57000000	      5.66979869	      1.51116978	      2.48056443	      0.25048038	      0.91112294	      0.18753352	     19.62047844	     -0.69074627	     -4.68650278	    -51.41478705	      8.84548848	     -9.99491944	      0.00000000	     -7.42651288	      7.07245377	      6.33167646	     -6.11722937	     13.71144520	     -4.17580667	      0.00000000	    -24.27947546	      0.05129337	     -7.91952783
      6.58000000	      5.53422877	      1.62201660	      3.06805678	      0.26135904	      0.91053786	      0.18711303	     19.99530676	     -0.83838489	     -4.84920862	    -47.99504097	      8.56509832	    -11.23105665	      0.00000000	     -8.24824380	      7.05212717	      6.98657472	     -5.77270546	     13.95320357	     -4.25907357	      0.00000000	    -24.46996672	     -0.01722539	     -8.19189713
      6.59000000	      5.35604188	      1.78423314	      3.63769462	      0.27233489	      0.90971554	      0.18673649	     20.25385034	     -1.04555298	     -4.93645141	    -44.28072359	      8.09448596	    -12.53674778	      0.00000000	     -9.12600778	      7.08684142	      8.11442249	     -5.26891885	     13.82349299	     -5.16157470	      0.00000000	    -24.58713255	     -0.15614319	     -8.50157806
      6.60000000	      5.25222124	      1.99132197	      4.15774754	      0.28344109	      0.90886234	      0.18649140	     20.25644717	     -1.28027185	     -4.92079119	    -40.26768247	      7.46255226	    -13.73803666	      0.00000000	     -9.99387840	      7.13994283	      8.58319306	     -4.94390183	     14.11972512	     -5.07124739	      0.00000000	    -24.77304703	     -0.36469278	     -8.80369769
      6.61000000	      5.09333334	      2.26386529	      4.63633652	      0.29470955	      0.90775398	      0.18632606	     20.17434720	     -1.58949708	     -4.83505840	    -36.03869357	      6.68709465	    -14.78740983	      0.00000000	    -10.83993865	      7.26014164	      9.06608652	     -4.58240701	     14.33168746	     -5.13849921	      0.00000000	    -24.85559107	     -0.67403609	     -9.13618411
      6.62000000	      4.92413832	      2.60144035	      5.08069828	      0.30614813	      0.90645561	      0.18621398	     19.97892352	     -1.98399317	     -4.74151122	    -31.65421553	      5.91483843	    -15.38221092	      0.00000000	    -11.71401238	      7.44256077	      9.59503088	     -4.19223768	     14.46481485	     -5.30360911	      0.00000000	    -24.89821945	     -1.07252554	     -9.50016350
      6.63000000	      4.71532836	      3.02564072	      5.50804898	      0.31776894	      0.90491969	      0.18612340	     19.73669363	     -2.48781659	     -4.65329591	    -27.20761595	      5.17110865	    -15.47767113	      0.00000000	    -12.61889951	      7.70741004	     10.33234486	     -3.72060844	     14.38958340	     -5.84499887	      0.00000000	    -24.86372416	     -1.58142068	     -9.95818992
      6.64000000	      4.53246809	      3.48273867	      5.92736990	      0.32960487	      0.90325955	      0.18601521	     19.42641078	     -3.07591070	     -4.84209609	    -22.80769493	      4.82561955	    -14.47216793	      0.00000000	    -13.59618630	      7.98359685	     11.12551847	     -3.21973008	     14.30010915	     -6.36579208	      0.00000000	    -24.82746704	     -2.11864943	    -10.41907167
      6.65000000	      4.36215434	      3.92225369	      6.34848475	      0.34165646	      0.90150122	      0.18595068	     19.03750408	     -3.60637296	     -4.96921454	    -18.44006894	      4.41968885	    -13.14380030	      0.00000000	    -14.52376322	      8.21883673	     11.52376633	     -2.86800737	     14.48363190	     -6.30688475	      0.00000000	    -24.77137038	     -2.63203272	    -10.90993194
      6.66000000	      4.18833812	      4.43719802	      6.76898065	      0.35387003	      0.89961324	      0.18585029	     18.70851662	     -4.24045680	     -5.41395580	    -14.38484355	      4.54185623	    -10.73883106	      0.00000000	    -15.50847099	      8.51007095	     12.18320252	     -2.46572362	     14.43576793	     -6.51381259	      0.00000000	    -24.70497132	     -3.22183406	    -11.45041776
      6.67000000	      4.04802624	      4.90316054	      7.20994085	      0.36627431	      0.89768939	      0.18573612	     18.32571453	     -4.77029223	     -5.72978003	    -10.57137213	      4.63763217	     -8.23006778	      0.00000000	    -16.52032398	      8.71546040	     12.85894160	     -2.10941340	     14.39813556	     -6.69406505	      0.00000000	    -24.65023549	     -3.73069634	    -12.00513872
      6.68000000	      3.94058015	      5.34020673	      7.65045723	      0.37883582	      0.89574753	      0.18560901	     17.90921871	     -5.22378230	     -5.77424234	     -7.10262689	      4.71989220	     -5.88674088	      0.00000000	    -17.54186769	      8.86511414	     13.53242372	     -1.82631178	     14.36642283	     -6.81695846	      0.00000000	    -24.61591571	     -4.18292279	    -12.56550907
